<svg width="150" height="25" viewBox="0 0 150 25" fill="none" xmlns="http://www.w3.org/2000/svg">
<path d="M29.8383 8.19937H42.3394V10.1938H32.5367V11.3018H39.9018C41.8701 11.3018 43.0433 12.2534 43.0433 13.8568C43.0433 15.4602 41.8832 16.4118 39.9018 16.4118H29.8383V8.19937ZM32.5367 13.2441V14.4955H39.4064C40.006 14.4955 40.2798 14.313 40.2798 13.8698C40.2798 13.4397 40.006 13.2441 39.4064 13.2441H32.5367Z" fill="#EF3B24"/>
<path d="M44.6207 8.19937H53.7326C56.2484 8.19937 57.7475 9.37257 57.7475 11.354C57.7475 13.3354 56.2615 14.5086 53.7326 14.5086H47.4364V16.4248H44.6207V8.19937ZM47.4494 10.3242V12.4099H53.3024C54.4104 12.4099 54.8927 12.097 54.8927 11.38C54.8927 10.637 54.4104 10.3242 53.3024 10.3242H47.4494Z" fill="#EF3B24"/>
<path d="M63.3658 14.0132L57.4998 8.19937H60.902L65.0343 12.2404L68.7103 8.19937H72.0344L64.552 16.4248H61.1497L63.3658 14.0132Z" fill="#EF3B24"/>
<path d="M78.9302 8.04294C82.9712 8.04294 85.3698 9.00757 85.9825 10.8456L82.9452 11.4452C82.5932 10.5588 81.3548 10.1547 78.9433 10.1547C75.6453 10.1547 74.1853 10.8065 74.1853 12.3186C74.1853 13.8177 75.6322 14.4825 78.9433 14.4825C81.42 14.4825 82.6584 14.0654 82.9582 13.1398L85.9564 13.7134C85.3046 15.6296 82.9843 16.5943 78.9433 16.5943C74.0158 16.5943 71.3044 15.0691 71.3044 12.3186C71.2914 9.55506 74.0028 8.04294 78.9302 8.04294Z" fill="#EF3B24"/>
<path d="M87.273 8.19937H90.0887V11.1715H98.6922V8.19937H101.521V16.4248H98.6922V13.2963H90.0887V16.4248H87.273V8.19937Z" fill="#EF3B24"/>
<path d="M103.594 8.19937H106.409V13.8047L114.726 8.19937H117.555V16.4248H114.726V10.8195L106.409 16.4248H103.594V8.19937Z" fill="#EF3B24"/>
<path d="M119.536 8.19937H122.352V11.6277L129.078 8.19937H133.666L125.897 12.0709L133.862 16.4248H128.948L122.352 12.814V16.4248H119.536V8.19937Z" fill="#EF3B24"/>
<path d="M141.801 10.2329L143.991 13.0486H139.611L141.801 10.2329ZM140.393 8.19937L133.719 16.4248H136.99L138.112 14.9909H145.503L146.624 16.4248H150L143.326 8.19937H140.393Z" fill="#EF3B24"/>
<path d="M12.1882 0C5.46189 0 0 5.46189 0 12.1882C0 18.9146 5.46189 24.3765 12.1882 24.3765C18.9146 24.3765 24.3765 18.9146 24.3765 12.1882C24.3765 5.46189 18.9146 0 12.1882 0ZM12.1882 4.34084C16.516 4.34084 20.0356 7.86043 20.0356 12.1882C20.0356 16.516 16.516 20.0356 12.1882 20.0356C7.86043 20.0356 4.34084 16.516 4.34084 12.1882C4.34084 7.86043 7.86043 4.34084 12.1882 4.34084Z" fill="#EF3B24"/>
<path d="M16.8549 9.22916C16.8549 10.8847 15.5122 12.2273 13.8567 12.2273C12.2012 12.2273 10.8585 10.8847 10.8585 9.22916C10.8585 7.57365 12.2012 6.23099 13.8567 6.23099C15.5122 6.23099 16.8549 7.57365 16.8549 9.22916Z" fill="#EF3B24"/>
</svg>
