<?xml version="1.0" standalone="no"?>
<!DOCTYPE svg PUBLIC "-//W3C//DTD SVG 20010904//EN"
 "http://www.w3.org/TR/2001/REC-SVG-20010904/DTD/svg10.dtd">
<svg version="1.0" xmlns="http://www.w3.org/2000/svg"
 width="4989.000000pt" height="1396.000000pt" viewBox="0 0 4989.000000 1396.000000"
 preserveAspectRatio="xMidYMid meet">

<g transform="translate(0.000000,1396.000000) scale(0.100000,-0.100000)"
fill="#000000" stroke="none">
<path d="M20367 13903 c23 -245 202 -386 493 -386 167 0 285 40 380 129 68 64
119 179 120 272 l0 32 -84 0 -84 0 -6 -44 c-15 -98 -106 -197 -209 -228 -67
-20 -193 -14 -259 11 -93 36 -160 116 -176 214 l-8 42 -86 3 -86 3 5 -48z"/>
<path d="M18498 13260 c-356 -60 -628 -324 -702 -682 -21 -101 -21 -305 0
-406 71 -346 323 -602 668 -679 115 -26 328 -21 447 10 314 82 541 314 621
635 18 70 22 117 22 237 0 120 -4 167 -22 237 -83 336 -337 579 -671 642 -87
17 -280 20 -363 6z m332 -216 c222 -52 394 -223 462 -459 32 -114 32 -306 0
-420 -69 -240 -241 -410 -468 -461 -111 -24 -283 -16 -384 20 -202 71 -354
248 -404 473 -21 93 -21 263 0 356 55 245 225 426 458 487 89 24 246 26 336 4z"/>
<path d="M25658 13260 c-195 -33 -396 -146 -512 -286 -89 -109 -144 -214 -182
-350 -22 -80 -30 -322 -14 -420 57 -358 316 -631 674 -711 115 -26 328 -21
447 10 309 80 544 320 621 632 31 127 31 352 0 477 -82 331 -330 572 -657 639
-95 20 -286 24 -377 9z m332 -216 c222 -52 395 -224 461 -459 19 -65 23 -105
23 -210 0 -105 -4 -145 -23 -210 -68 -240 -240 -410 -467 -461 -111 -24 -283
-16 -384 20 -145 51 -279 168 -345 303 -52 107 -66 169 -72 313 -4 114 -2 148
16 222 58 244 223 417 455 478 89 24 246 26 336 4z"/>
<path d="M34725 13259 c-334 -65 -574 -297 -661 -639 -29 -116 -27 -384 4
-500 68 -251 241 -458 467 -561 195 -88 468 -109 689 -53 109 27 254 105 334
179 40 37 72 71 72 77 0 5 -28 42 -63 82 l-63 73 -50 -45 c-136 -124 -260
-173 -459 -179 -155 -6 -244 10 -353 62 -131 62 -234 160 -295 282 -31 61 -67
184 -67 230 l0 33 731 0 732 0 -6 138 c-4 108 -10 155 -31 225 -71 238 -213
414 -419 516 -56 28 -129 58 -162 67 -72 19 -326 28 -400 13z m288 -204 c234
-41 423 -220 480 -452 8 -32 17 -73 21 -90 l6 -33 -622 0 -621 0 7 54 c23 198
160 387 343 474 120 57 247 72 386 47z"/>
<path d="M38676 13255 c-255 -53 -443 -183 -574 -395 -180 -292 -171 -727 21
-1010 51 -75 158 -180 235 -231 307 -202 777 -192 1042 20 56 45 160 162 160
180 0 4 -38 33 -84 65 l-85 58 -73 -75 c-118 -122 -257 -177 -444 -177 -194 0
-341 57 -464 180 -136 135 -192 282 -193 500 -1 149 16 229 74 347 77 161 236
284 419 327 83 20 237 20 320 0 129 -30 269 -120 336 -217 l19 -28 88 61 c48
34 87 64 87 67 0 15 -78 109 -128 153 -67 60 -200 131 -302 161 -97 28 -348
36 -454 14z"/>
<path d="M10715 13033 c84 -126 215 -319 290 -430 l136 -202 -282 -408 c-155
-224 -297 -429 -315 -455 l-34 -48 144 0 144 0 233 343 c128 188 250 366 271
395 l39 52 184 0 185 0 0 -395 0 -395 120 0 120 0 0 395 0 395 188 0 188 0
270 -395 269 -394 144 -1 143 0 -18 28 c-10 15 -150 218 -312 450 -178 257
-291 430 -288 438 3 9 129 198 279 422 151 224 277 413 281 420 6 9 -21 12
-121 12 l-129 0 -258 -390 -258 -390 -189 0 -189 0 0 390 0 390 -120 0 -120 0
0 -390 0 -390 -187 0 -188 0 -257 390 -257 390 -130 0 -130 0 154 -227z"/>
<path d="M13550 12375 l0 -885 108 1 107 0 575 695 c316 382 578 694 582 694
5 0 8 -313 8 -695 l0 -695 115 0 115 0 0 885 0 885 -104 0 -104 0 -577 -692
c-317 -381 -581 -694 -586 -696 -5 -2 -9 282 -9 692 l0 696 -115 0 -115 0 0
-885z"/>
<path d="M15986 13148 c-4 -62 -13 -246 -21 -408 -24 -477 -43 -658 -86 -795
-57 -186 -142 -263 -279 -253 -70 5 -65 13 -75 -119 l-5 -82 57 -11 c86 -18
208 -9 268 20 205 99 296 432 335 1225 5 121 13 244 16 273 l5 52 417 -2 417
-3 3 -777 2 -778 115 0 115 0 0 885 0 885 -639 0 -639 0 -6 -112z"/>
<path d="M20060 12375 l0 -885 110 0 109 0 578 696 578 696 3 -696 2 -696 120
0 120 0 0 885 0 885 -105 0 -105 0 -583 -699 -582 -700 -3 700 -2 699 -120 0
-120 0 0 -885z"/>
<path d="M23230 12375 l0 -885 120 0 120 0 0 395 0 395 194 0 c148 0 198 -3
208 -13 7 -8 154 -185 327 -395 l314 -382 139 0 c114 0 138 2 131 14 -4 7
-168 210 -363 451 -195 240 -355 442 -354 448 1 7 152 200 337 430 186 230
337 421 337 423 0 2 -57 4 -127 4 l-128 0 -309 -390 -309 -390 -199 0 -198 0
0 390 0 390 -120 0 -120 0 0 -885z"/>
<path d="M27220 12375 l0 -885 110 0 110 0 2 697 3 697 350 -587 350 -587 60
2 59 3 346 577 c190 318 348 577 353 578 4 0 7 -310 7 -690 l0 -690 105 0 105
0 0 885 0 885 -109 0 -108 0 -369 -621 c-203 -342 -373 -628 -379 -635 -7 -10
-105 150 -380 621 l-370 635 -122 0 -123 0 0 -885z"/>
<path d="M29860 12375 l0 -885 115 0 115 0 2 778 3 777 548 3 547 2 0 -780 0
-780 120 0 120 0 0 885 0 885 -785 0 -785 0 0 -885z"/>
<path d="M32250 13228 c0 -60 -30 -641 -40 -793 -29 -412 -75 -591 -176 -689
-46 -45 -90 -59 -170 -54 l-63 4 -6 -56 c-3 -30 -8 -76 -10 -102 l-5 -46 50
-11 c83 -18 192 -14 255 10 216 81 316 417 355 1194 5 116 13 245 16 288 l6
77 417 -2 416 -3 3 -777 2 -778 120 0 120 0 0 885 0 885 -645 0 -645 0 0 -32z"/>
<path d="M36270 12375 l0 -885 115 0 115 0 2 393 3 392 200 0 199 0 321 -390
320 -390 144 -3 c116 -2 142 0 134 10 -6 7 -169 208 -363 447 -193 239 -354
440 -357 447 -2 7 145 199 328 426 182 227 336 419 342 426 7 9 -18 12 -120
12 l-130 0 -309 -390 -309 -390 -200 3 -200 2 -3 388 -2 387 -115 0 -115 0 0
-885z"/>
<path d="M13129 8210 c-537 -34 -1062 -149 -1528 -336 -182 -73 -525 -244
-690 -343 -289 -175 -542 -372 -777 -606 -249 -249 -445 -497 -613 -780 -403
-678 -570 -1347 -532 -2133 39 -809 202 -1386 558 -1978 398 -661 935 -1150
1669 -1517 706 -353 1424 -509 2349 -511 355 -1 445 5 710 44 769 113 1553
447 2142 912 601 474 1084 1157 1323 1868 132 396 193 801 193 1280 0 686
-128 1244 -417 1805 -401 782 -1001 1373 -1806 1780 -558 282 -1102 438 -1745
500 -192 19 -648 27 -836 15z m513 -390 c439 -23 826 -109 1188 -262 815 -345
1529 -1082 1853 -1913 268 -688 342 -1524 206 -2330 -67 -398 -212 -818 -395
-1149 -150 -269 -335 -515 -559 -745 -300 -307 -602 -526 -968 -701 -699 -334
-1579 -417 -2394 -225 -692 164 -1364 596 -1816 1168 -428 542 -673 1155 -764
1912 -26 218 -26 855 0 1070 108 881 421 1566 982 2144 638 657 1411 999 2340
1034 39 2 88 4 110 5 22 1 120 -3 217 -8z"/>
<path d="M36020 8213 c-705 -37 -1310 -186 -1895 -467 -830 -399 -1442 -966
-1867 -1731 -232 -418 -371 -843 -440 -1345 -20 -149 -17 -793 5 -988 83 -728
268 -1251 642 -1812 387 -581 890 -1018 1563 -1354 551 -276 1108 -427 1812
-492 263 -25 836 -25 1048 -1 435 49 818 145 1222 304 983 387 1730 1048 2208
1954 370 700 509 1560 391 2423 -83 609 -284 1122 -650 1662 -283 415 -629
760 -1049 1043 -188 127 -301 192 -543 312 -592 293 -1188 447 -1892 489 -155
9 -417 11 -555 3z m600 -404 c666 -58 1281 -304 1795 -716 235 -188 511 -480
685 -723 463 -648 695 -1479 666 -2388 -34 -1080 -385 -1939 -1065 -2611 -571
-564 -1247 -877 -2076 -962 -173 -18 -577 -15 -761 5 -823 89 -1498 415 -2070
998 -601 612 -934 1396 -1005 2363 -14 201 -6 670 15 855 84 719 310 1313 695
1824 314 417 719 764 1162 995 575 300 1244 423 1959 360z"/>
<path d="M0 7971 l0 -68 143 -6 c163 -6 243 -25 374 -88 220 -105 429 -330
586 -629 24 -47 777 -1681 1673 -3632 l1629 -3548 62 0 63 0 0 697 0 696
-1187 2851 c-652 1568 -1192 2874 -1199 2901 -8 28 -19 96 -26 152 -15 130 -2
207 53 319 97 197 234 284 450 284 l99 0 0 70 0 70 -1360 0 -1360 0 0 -69z"/>
<path d="M6410 7970 l0 -70 108 0 c132 0 211 -12 327 -51 225 -75 391 -244
474 -481 53 -154 66 -241 65 -458 -1 -213 -17 -344 -74 -576 -31 -124 -106
-359 -153 -474 -15 -35 -25 -65 -23 -67 1 -2 152 314 335 701 212 447 355 738
393 797 119 185 241 313 398 419 202 136 362 190 566 190 l104 0 0 70 0 70
-1260 0 -1260 0 0 -70z"/>
<path d="M19130 7971 l0 -69 183 -5 c201 -5 276 -19 416 -80 112 -48 185 -100
286 -201 65 -65 99 -110 122 -156 68 -140 63 145 63 -3350 0 -3479 5 -3213
-60 -3345 -50 -103 -174 -231 -296 -305 -157 -95 -314 -136 -556 -146 l-158
-7 0 -64 0 -63 1506 0 1507 0 -7 37 c-3 21 -6 50 -6 66 l0 27 -77 0 c-124 0
-292 18 -377 40 -176 45 -306 119 -432 245 -63 63 -90 100 -123 166 -77 157
-71 -133 -69 3376 l3 3148 28 82 c81 240 297 422 597 504 58 16 117 22 263 26
l187 5 0 69 0 69 -1500 0 -1500 0 0 -69z"/>
<path d="M23580 7970 l0 -70 138 0 c263 0 435 -69 602 -241 107 -110 171 -235
196 -384 12 -67 14 -574 12 -3205 -3 -2949 -4 -3128 -21 -3185 -45 -156 -143
-302 -268 -399 -148 -116 -286 -162 -516 -173 l-143 -6 0 -64 0 -63 1360 0
1360 0 0 65 0 65 -67 0 c-93 0 -236 16 -308 35 -33 8 -107 38 -165 67 -88 43
-117 64 -186 132 -63 64 -90 99 -122 166 -79 161 -72 -161 -72 3400 0 3543 -6
3240 67 3390 29 60 57 95 137 176 84 83 115 107 186 142 124 61 226 82 393 82
l137 0 0 70 0 70 -1360 0 -1360 0 0 -70z"/>
<path d="M28280 7971 l0 -69 123 -3 c115 -4 127 -6 189 -37 74 -36 115 -78
156 -161 38 -78 35 -142 -9 -227 -25 -47 -401 -490 -1449 -1705 -778 -902
-1423 -1651 -1433 -1664 l-18 -24 1482 -1603 c815 -882 1516 -1636 1558 -1676
307 -297 724 -492 1221 -571 218 -35 315 -42 713 -48 l388 -6 -3 69 -3 69
-105 7 c-225 14 -417 60 -575 138 -136 68 -218 131 -362 279 -67 69 -858 917
-1758 1884 l-1635 1759 37 42 c139 157 2915 3070 2961 3107 291 235 694 369
1115 369 l117 0 0 70 0 70 -1355 0 -1355 0 0 -69z"/>
<path d="M40950 7971 l0 -68 143 -6 c158 -5 263 -30 380 -88 230 -116 444
-352 596 -658 32 -64 192 -409 356 -768 165 -359 301 -651 302 -649 1 1 -16
53 -38 116 -100 282 -143 518 -143 785 0 406 111 721 338 961 188 200 385 291
649 301 l137 6 0 68 0 69 -1360 0 -1360 0 0 -69z"/>
<path d="M47360 7970 l0 -70 93 0 c203 0 326 -67 438 -238 102 -155 117 -304
52 -507 -8 -27 -567 -1332 -1240 -2900 l-1225 -2850 -59 -690 c-32 -379 -59
-696 -59 -702 0 -9 18 -13 59 -13 l59 0 7 48 c18 119 155 511 268 762 136 306
805 1731 1957 4175 392 831 782 1659 868 1840 213 452 284 568 452 736 215
214 488 339 741 339 l109 0 0 70 0 70 -1260 0 -1260 0 0 -70z"/>
<path d="M7116 5765 c-9 -26 -7 -32 5 -12 6 10 9 21 6 23 -2 3 -7 -2 -11 -11z"/>
</g>
</svg>
