<svg width="14" height="14" viewBox="0 0 14 14" fill="none" xmlns="http://www.w3.org/2000/svg">
<path d="M13.6098 0.390107C13.2752 0.0555112 12.7386 0.0555112 12.404 0.390107L6.99996 5.79415L1.59592 0.390107C1.26132 0.0555112 0.724704 0.0555112 0.390107 0.390107C0.0555111 0.724703 0.0555111 1.26132 0.390107 1.59592L5.79416 6.99995L0.390107 12.404C0.0555111 12.7386 0.0555111 13.2752 0.390107 13.6098C0.554249 13.7739 0.775209 13.8623 0.989856 13.8623C1.2045 13.8623 1.42546 13.7803 1.5896 13.6098L6.99365 8.20576L12.3977 13.6098C12.5618 13.7739 12.7828 13.8623 12.9974 13.8623C13.2184 13.8623 13.4331 13.7803 13.5972 13.6098C13.9318 13.2752 13.9318 12.7386 13.5972 12.404L8.20578 6.99995L13.6098 1.59592C13.9444 1.26132 13.9444 0.724703 13.6098 0.390107Z" fill="white"/>
</svg>
